<svg width="291" height="291" viewBox="0 0 291 291" fill="none" xmlns="http://www.w3.org/2000/svg">
<path d="M269.919 270.811C269.919 270.895 214.732 270.962 146.67 270.962C78.5839 270.962 23.408 270.894 23.408 270.811C23.408 270.728 78.5839 270.66 146.67 270.66C214.732 270.66 269.919 270.728 269.919 270.811Z" fill="#263238"/>
<path d="M56.1282 239.43C57.7042 239.751 59.0481 240.862 59.8943 242.23C60.7399 243.598 61.1299 245.205 61.2835 246.807C61.5803 249.905 60.5066 253.322 59.1662 256.132C56.1485 254.447 54.7424 250.692 54.1488 248.742C53.21 245.66 53.3858 239.521 56.1282 239.43Z" fill="#455A64"/>
<path d="M63.1831 260.499C62.4137 258.875 62.7285 256.849 63.7942 255.402C64.8598 253.955 66.5889 253.072 68.3704 252.836C69.194 252.726 70.1199 252.778 70.7252 253.347C71.2909 253.879 71.4265 254.76 71.2164 255.508C71.0069 256.256 70.5041 256.888 69.9453 257.428C68.0306 259.28 65.8376 260.721 63.1831 260.499Z" fill="#455A64"/>
<path d="M61.8765 270.467C61.8602 270.467 61.8486 270.239 61.8358 269.827C61.8236 269.373 61.8078 268.786 61.7886 268.081C61.7735 266.618 61.7101 264.53 62.3881 262.347C63.0527 260.172 64.2569 258.419 65.3749 257.439C65.9278 256.941 66.4336 256.608 66.7991 256.412C66.9778 256.307 67.1291 256.249 67.2269 256.202C67.3264 256.157 67.3805 256.138 67.384 256.145C67.4125 256.191 66.5459 256.543 65.4838 257.556C64.4135 258.548 63.2576 260.275 62.6034 262.413C61.9376 264.552 61.9726 266.616 61.9481 268.08C61.9429 268.817 61.9382 269.414 61.9237 269.826C61.9097 270.239 61.8911 270.468 61.8765 270.467Z" fill="#263238"/>
<path d="M56.4077 244.117C56.4152 244.115 56.4455 244.207 56.4961 244.382C56.5508 244.581 56.6207 244.836 56.7074 245.152C56.8866 245.822 57.134 246.794 57.4291 247.998C58.0198 250.405 58.7898 253.743 59.5569 257.448C60.3228 261.154 60.9403 264.524 61.3529 266.969C61.5595 268.191 61.7184 269.181 61.8197 269.867C61.8657 270.191 61.9023 270.453 61.9314 270.657C61.9547 270.838 61.9629 270.934 61.9553 270.936C61.9477 270.937 61.9244 270.844 61.8866 270.665C61.847 270.462 61.7964 270.203 61.733 269.882C61.6008 269.173 61.4187 268.194 61.1958 266.996C60.743 264.56 60.101 261.197 59.3357 257.493C58.5692 253.791 57.8248 250.45 57.2737 248.034C57.003 246.846 56.7819 245.875 56.6218 245.172C56.552 244.852 56.4955 244.594 56.4519 244.392C56.4152 244.214 56.4001 244.119 56.4077 244.117Z" fill="#263238"/>
<path d="M59.1639 263.273C57.8101 259.734 54.6435 256.947 50.9623 256.051C50.0247 255.824 48.8567 255.792 48.291 256.574C47.7241 257.356 48.1216 258.462 48.6506 259.27C50.8523 262.634 55.2325 264.412 59.1563 263.534" fill="#455A64"/>
<path d="M51.9821 258.834C51.9856 258.819 52.1951 258.863 52.5728 258.956C52.762 259 52.993 259.057 53.2526 259.152C53.5116 259.247 53.8177 259.328 54.1332 259.476C54.4527 259.614 54.8071 259.757 55.1645 259.958C55.5335 260.138 55.9042 260.37 56.2935 260.618C57.0577 261.132 57.8533 261.771 58.5814 262.55C59.3025 263.336 59.8822 264.176 60.3332 264.98C60.5462 265.389 60.7505 265.777 60.896 266.161C61.0648 266.536 61.1759 266.901 61.2819 267.233C61.4 267.561 61.4495 267.874 61.5182 268.141C61.5874 268.409 61.6194 268.645 61.6439 268.838C61.6963 269.223 61.7178 269.436 61.7021 269.438C61.652 269.447 61.5612 268.589 61.13 267.282C61.0153 266.958 60.8977 266.601 60.7237 266.235C60.5736 265.86 60.3658 265.482 60.1516 265.082C59.6982 264.297 59.1244 263.476 58.4161 262.704C57.7002 261.94 56.9233 261.308 56.1777 260.792C55.7977 260.543 55.4363 260.308 55.076 260.124C54.7274 259.918 54.3817 259.769 54.0697 259.624C52.8097 259.069 51.9687 258.882 51.9821 258.834Z" fill="#263238"/>
<path d="M243.824 238.038C245.4 238.359 246.744 239.47 247.59 240.837C248.436 242.206 248.825 243.813 248.979 245.415C249.276 248.513 248.202 251.93 246.862 254.74C243.844 253.055 242.438 249.3 241.844 247.35C240.906 244.268 241.081 238.129 243.824 238.038Z" fill="#455A64"/>
<path d="M250.879 259.107C250.109 257.483 250.424 255.457 251.49 254.01C252.555 252.563 254.284 251.68 256.066 251.444C256.89 251.334 257.815 251.386 258.421 251.955C258.986 252.487 259.122 253.368 258.912 254.116C258.702 254.864 258.2 255.496 257.641 256.036C255.726 257.888 253.533 259.329 250.879 259.107Z" fill="#455A64"/>
<path d="M249.572 269.075C249.556 269.075 249.544 268.847 249.531 268.435C249.519 267.981 249.503 267.394 249.484 266.689C249.469 265.226 249.406 263.138 250.084 260.955C250.748 258.78 251.952 257.027 253.07 256.047C253.623 255.549 254.129 255.216 254.495 255.02C254.673 254.915 254.825 254.857 254.922 254.81C255.022 254.765 255.076 254.746 255.08 254.753C255.108 254.798 254.241 255.151 253.179 256.164C252.109 257.156 250.953 258.883 250.299 261.021C249.633 263.159 249.668 265.224 249.644 266.688C249.638 267.425 249.634 268.022 249.619 268.434C249.605 268.847 249.587 269.075 249.572 269.075Z" fill="#263238"/>
<path d="M244.103 242.725C244.111 242.723 244.141 242.814 244.192 242.99C244.246 243.189 244.316 243.444 244.403 243.76C244.582 244.43 244.83 245.401 245.125 246.606C245.715 249.013 246.485 252.351 247.252 256.056C248.018 259.762 248.636 263.132 249.048 265.577C249.255 266.799 249.414 267.789 249.515 268.475C249.561 268.799 249.598 269.061 249.627 269.265C249.65 269.446 249.658 269.542 249.651 269.543C249.643 269.545 249.62 269.451 249.582 269.273C249.543 269.07 249.492 268.811 249.429 268.489C249.296 267.781 249.114 266.802 248.891 265.604C248.439 263.168 247.797 259.805 247.031 256.101C246.265 252.399 245.52 249.058 244.969 246.642C244.699 245.454 244.477 244.483 244.317 243.78C244.248 243.46 244.191 243.202 244.147 243C244.111 242.821 244.096 242.727 244.103 242.725Z" fill="#263238"/>
<path d="M246.859 261.881C245.506 258.342 242.339 255.554 238.658 254.659C237.72 254.432 236.552 254.4 235.987 255.181C235.42 255.964 235.817 257.069 236.346 257.878C238.548 261.242 242.928 263.02 246.852 262.142" fill="#455A64"/>
<path d="M239.678 257.442C239.681 257.427 239.891 257.47 240.268 257.564C240.458 257.608 240.689 257.665 240.948 257.76C241.207 257.855 241.513 257.936 241.829 258.084C242.148 258.222 242.503 258.365 242.86 258.566C243.229 258.746 243.6 258.978 243.989 259.226C244.753 259.74 245.549 260.379 246.277 261.158C246.998 261.944 247.578 262.783 248.029 263.588C248.242 263.997 248.446 264.385 248.592 264.769C248.76 265.143 248.872 265.509 248.977 265.841C249.096 266.169 249.145 266.482 249.214 266.749C249.283 267.017 249.315 267.253 249.339 267.446C249.392 267.831 249.413 268.044 249.398 268.046C249.348 268.055 249.257 267.197 248.826 265.89C248.711 265.566 248.593 265.209 248.419 264.843C248.269 264.468 248.061 264.089 247.847 263.69C247.394 262.905 246.82 262.084 246.112 261.312C245.396 260.547 244.619 259.915 243.873 259.4C243.493 259.151 243.132 258.916 242.772 258.732C242.423 258.526 242.077 258.377 241.765 258.232C240.505 257.677 239.664 257.49 239.678 257.442Z" fill="#263238"/>
<path d="M70.4782 88.2877L68.3243 81.5685C70.5137 78.0142 71.7796 73.8302 71.7796 69.3488C71.7796 56.4621 61.3333 46.0158 48.4466 46.0158C35.56 46.0158 25.1143 56.4621 25.1143 69.3488C25.1143 82.2349 35.5606 92.6812 48.4466 92.6812C53.8272 92.6812 58.7789 90.8549 62.726 87.7953L62.7179 87.8058L70.4782 88.2877Z" fill="#FAFAFA"/>
<path d="M70.4778 88.2876C70.4778 88.2876 70.3183 88.2841 69.9895 88.2679C69.6484 88.2498 69.1584 88.2248 68.5153 88.191C67.1912 88.1183 65.2456 88.0112 62.7139 87.8715C62.6778 87.8698 62.6499 87.8389 62.6522 87.8028C62.6528 87.7895 62.658 87.7761 62.6662 87.7662L62.6743 87.7557L62.7668 87.8476C60.3847 89.7025 56.8526 91.7092 52.2332 92.474C51.0849 92.6678 49.8755 92.7766 48.6219 92.7859C47.3712 92.7341 46.0681 92.73 44.751 92.4775C42.1123 92.0648 39.3704 91.1691 36.7817 89.6844C34.1947 88.2056 31.7666 86.1406 29.7954 83.5554C27.8236 80.976 26.3162 77.8728 25.5479 74.4768C24.7622 71.0866 24.7727 67.4061 25.6411 63.8419C25.7551 63.3978 25.8698 62.952 25.9844 62.5056C26.116 62.0639 26.2941 61.6355 26.4471 61.1979C26.62 60.7684 26.7358 60.3126 26.9576 59.9006C27.1595 59.4804 27.3626 59.059 27.5657 58.6371C27.7526 58.2058 28.0069 57.8101 28.2519 57.4079L28.9893 56.1991L29.8414 55.0595L30.2691 54.488C30.4152 54.3 30.5857 54.1318 30.7429 53.9526C33.3072 51.0356 36.5105 48.7501 40.0159 47.4522C43.5032 46.1165 47.2117 45.6567 50.7311 45.9861C54.2563 46.3214 57.5667 47.4894 60.3958 49.1732C63.2301 50.8598 65.5831 53.0732 67.36 55.5082C69.1432 57.9445 70.3497 60.5978 71.0522 63.1982C71.4363 64.4949 71.5987 65.7945 71.771 67.0429C71.8251 68.3023 71.931 69.5176 71.8385 70.6851C71.562 75.3736 69.9476 79.0851 68.3791 81.601L68.3855 81.5487C69.0705 83.7399 69.5978 85.4277 69.9575 86.5789C70.1297 87.137 70.2618 87.5631 70.3538 87.8605C70.4399 88.1474 70.4778 88.2876 70.4778 88.2876C70.4778 88.2876 70.4219 88.134 70.3247 87.8424C70.2252 87.5433 70.0826 87.1143 69.8964 86.5521C69.5227 85.4161 68.975 83.7504 68.2638 81.5877C68.258 81.5696 68.2609 81.5504 68.2702 81.5353C69.8085 79.0187 71.3869 75.3242 71.6394 70.674C71.7262 69.5158 71.615 68.3117 71.5568 67.0639C71.3804 65.8271 71.2152 64.5403 70.8299 63.2582C70.1251 60.6857 68.9232 58.0638 67.1528 55.6584C65.3888 53.2542 63.0573 51.0711 60.2532 49.4095C57.4544 47.7508 54.1829 46.6025 50.7008 46.2754C47.224 45.9541 43.5632 46.4122 40.1212 47.7321C36.6618 49.0149 33.5004 51.2724 30.9693 54.1516C30.8139 54.3285 30.6457 54.4944 30.5014 54.6801L30.0794 55.244L29.2384 56.3684L28.5109 57.5615C28.2688 57.9585 28.018 58.349 27.8335 58.775C27.6327 59.1917 27.4325 59.6073 27.2323 60.0222C27.0128 60.4285 26.8994 60.8784 26.7282 61.3026C26.5769 61.7345 26.4 62.157 26.2702 62.5929C26.1567 63.0341 26.0438 63.4735 25.9309 63.9123C25.0713 67.4293 25.0579 71.0657 25.8302 74.4139C26.5851 77.7686 28.0686 80.8357 30.0131 83.389C31.9564 85.948 34.3524 87.9949 36.9074 89.4639C39.4642 90.9392 42.1745 91.8338 44.786 92.2511C46.0891 92.506 47.3794 92.5141 48.619 92.5706C49.861 92.5665 51.0605 92.4629 52.1995 92.2761C56.7827 91.5381 60.3009 89.5692 62.6854 87.7441C62.7139 87.7219 62.7552 87.7266 62.7779 87.7557C62.7965 87.7796 62.7959 87.8133 62.7779 87.8366L62.7698 87.8471L62.722 87.7411C65.2322 87.9146 67.1604 88.0479 68.4728 88.1386C69.1229 88.1858 69.6187 88.2213 69.9633 88.2457C70.2997 88.2702 70.4778 88.2876 70.4778 88.2876Z" fill="#263238"/>
<path d="M41.8708 69.3413C41.8708 70.6502 40.8098 71.7118 39.5009 71.7118C38.1914 71.7118 37.1304 70.6508 37.1304 69.3413C37.1304 68.0324 38.1914 66.9708 39.5009 66.9708C40.8092 66.9714 41.8708 68.0324 41.8708 69.3413Z" fill="#263238"/>
<path d="M51.3562 69.3412C51.3562 70.6501 50.2946 71.7117 48.9857 71.7117C47.6768 71.7117 46.6152 70.6507 46.6152 69.3412C46.6152 68.0323 47.6762 66.9707 48.9857 66.9707C50.2952 66.9713 51.3562 68.0323 51.3562 69.3412Z" fill="#263238"/>
<path d="M60.8177 68.1563C61.4725 69.29 61.0837 70.7398 59.95 71.3939C58.8162 72.0487 57.3665 71.6599 56.7123 70.5262C56.0576 69.3924 56.4463 67.9427 57.5801 67.2879C58.7138 66.6343 60.163 67.0225 60.8177 68.1563Z" fill="#263238"/>
<path d="M102.746 172.974L78.205 170.41L67.8495 146.845L59.783 148.95C59.783 148.95 65.745 173.851 72.4089 177.709C79.0728 181.567 101.869 182.268 101.869 182.268L102.746 172.974Z" fill="#00A5B6"/>
<path d="M115.79 184.926C119.779 180.437 119.374 173.565 114.885 169.576C110.397 165.587 103.524 165.992 99.5355 170.481C95.5466 174.969 95.9516 181.842 100.44 185.831C104.929 189.819 111.801 189.414 115.79 184.926Z" fill="#263238"/>
<path d="M107.655 188.595C104.747 188.595 102.014 187.462 99.9573 185.406C97.9011 183.351 96.7686 180.617 96.7686 177.708C96.7686 174.799 97.9011 172.066 99.9573 170.01C102.014 167.954 104.747 166.821 107.655 166.821C110.564 166.821 113.297 167.953 115.354 170.01C117.41 172.066 118.542 174.8 118.542 177.708C118.542 180.616 117.409 183.35 115.354 185.406C113.297 187.462 110.564 188.595 107.655 188.595ZM107.655 166.851C104.755 166.851 102.029 167.98 99.9777 170.031C97.9273 172.081 96.7977 174.808 96.7977 177.708C96.7977 180.608 97.9267 183.335 99.9777 185.385C102.029 187.436 104.755 188.565 107.655 188.565C110.556 188.565 113.282 187.436 115.333 185.385C117.384 183.335 118.513 180.608 118.513 177.708C118.513 174.808 117.384 172.081 115.333 170.031C113.282 167.98 110.556 166.851 107.655 166.851Z" fill="#263238"/>
<path d="M76.0315 179.582C80.4107 178.531 83.1087 174.129 82.0576 169.75C81.0064 165.371 76.6042 162.673 72.225 163.724C67.8457 164.775 65.1478 169.177 66.1989 173.556C67.25 177.936 71.6522 180.633 76.0315 179.582Z" fill="#263238"/>
<path d="M67.9371 148.755C70.5388 146.154 70.5388 141.935 67.9371 139.334C65.3354 136.732 61.1172 136.732 58.5155 139.334C55.9138 141.935 55.9138 146.154 58.5155 148.755C61.1172 151.357 65.3354 151.357 67.9371 148.755Z" fill="#263238"/>
<path d="M68.1377 145.065L73.6149 140.44C74.2173 139.931 74.2935 139.03 73.7848 138.428L73.6498 138.268C73.1412 137.666 72.2402 137.59 71.6378 138.099L66.1606 142.725L68.1377 145.065Z" fill="#263238"/>
<path d="M66.6448 138.914V131.951C66.6448 131.162 66.0058 130.523 65.2172 130.523H65.0082C64.2196 130.523 63.5806 131.162 63.5806 131.951V138.914C63.5806 139.027 63.6725 139.12 63.7866 139.12H66.4394C66.5528 139.119 66.6448 139.027 66.6448 138.914Z" fill="#263238"/>
<path d="M63.2249 138.773L61.7047 131.977C61.5324 131.208 60.7688 130.724 59.9994 130.896L59.7957 130.941C59.0263 131.113 58.5421 131.876 58.7138 132.646L60.234 139.442C60.259 139.553 60.369 139.623 60.4802 139.598L63.0695 139.019C63.1801 138.994 63.2499 138.884 63.2249 138.773Z" fill="#263238"/>
<path d="M59.8709 139.71L56.3893 133.68C55.9953 132.997 55.1218 132.763 54.4391 133.157L54.2581 133.261C53.5748 133.656 53.3414 134.529 53.7354 135.212L57.217 141.242C57.274 141.341 57.3997 141.374 57.4981 141.318L59.7958 139.992C59.8942 139.935 59.9279 139.809 59.8709 139.71Z" fill="#263238"/>
<path d="M209.289 234.005L216.624 230.885L195.451 181.107L188.116 184.227L209.289 234.005Z" fill="#00A5B6"/>
<path d="M196.504 185.858C200.385 181.276 199.818 174.416 195.236 170.534C190.655 166.653 183.794 167.221 179.913 171.802C176.031 176.384 176.599 183.244 181.181 187.126C185.762 191.007 192.623 190.439 196.504 185.858Z" fill="#263238"/>
<path d="M188.222 189.735C187.143 189.735 186.06 189.573 185 189.245C182.221 188.388 179.942 186.5 178.583 183.93C177.224 181.359 176.948 178.413 177.805 175.633C178.662 172.855 180.55 170.576 183.121 169.217C185.693 167.859 188.638 167.582 191.417 168.44C194.195 169.296 196.475 171.184 197.833 173.755C199.192 176.326 199.468 179.273 198.611 182.052C197.754 184.83 195.866 187.109 193.295 188.468C191.705 189.308 189.971 189.735 188.222 189.735ZM188.194 167.98C186.45 167.98 184.72 168.405 183.135 169.244C180.571 170.598 178.688 172.871 177.833 175.643C176.978 178.414 177.254 181.352 178.609 183.916C179.964 186.48 182.237 188.363 185.008 189.218C187.78 190.072 190.719 189.797 193.282 188.441C195.846 187.086 197.729 184.814 198.584 182.042C199.438 179.271 199.162 176.332 197.807 173.769C196.452 171.205 194.18 169.322 191.408 168.467C190.351 168.142 189.27 167.98 188.194 167.98Z" fill="#263238"/>
<path d="M210.235 211.34C211.441 207 208.901 202.505 204.562 201.299C200.223 200.093 195.728 202.633 194.522 206.972C193.316 211.311 195.855 215.806 200.195 217.013C204.534 218.219 209.029 215.679 210.235 211.34Z" fill="#263238"/>
<path d="M220.978 232.415C219.813 228.925 216.039 227.04 212.549 228.205C209.058 229.37 207.173 233.144 208.339 236.634C209.504 240.124 213.277 242.009 216.768 240.844C220.258 239.679 222.142 235.905 220.978 232.415Z" fill="#263238"/>
<path d="M209.677 235.111L205.947 241.233C205.536 241.907 205.749 242.786 206.423 243.196L206.601 243.305C207.275 243.715 208.154 243.502 208.564 242.829L212.294 236.707L209.677 235.111Z" fill="#263238"/>
<path d="M213.041 240.474L215.246 247.079C215.496 247.827 216.304 248.231 217.052 247.981L217.251 247.915C217.999 247.665 218.403 246.856 218.153 246.108L215.948 239.503C215.912 239.395 215.796 239.337 215.688 239.373L213.171 240.213C213.063 240.249 213.005 240.366 213.041 240.474Z" fill="#263238"/>
<path d="M216.329 239.525L219.923 245.489C220.33 246.165 221.207 246.382 221.883 245.975L222.062 245.867C222.738 245.46 222.956 244.583 222.548 243.907L218.955 237.943C218.896 237.846 218.77 237.814 218.672 237.873L216.399 239.242C216.302 239.301 216.271 239.427 216.329 239.525Z" fill="#263238"/>
<path d="M219.215 237.573L224.426 242.191C225.017 242.714 225.919 242.659 226.442 242.069L226.58 241.913C227.103 241.322 227.049 240.42 226.459 239.897L221.247 235.28C221.162 235.205 221.032 235.212 220.957 235.297L219.197 237.283C219.121 237.368 219.13 237.498 219.215 237.573Z" fill="#263238"/>
<path d="M104.403 166.399C104.403 166.399 105.188 242.719 148.018 244.212C190.848 245.704 192.643 166.945 192.643 166.399C192.643 166.399 187.585 155.017 148.523 155.463C109.461 155.908 104.403 166.399 104.403 166.399Z" fill="#00A5B6"/>
<path d="M128.467 152.961H164.669C167.032 152.961 168.947 151.047 168.947 148.684V148.058C168.947 145.695 167.032 143.78 164.669 143.78H128.467C126.105 143.78 124.189 145.695 124.189 148.058V148.684C124.19 151.047 126.105 152.961 128.467 152.961Z" fill="#263238"/>
<path d="M145.014 85.0954H148.14V69.2918H145.014V85.0954Z" fill="#263238"/>
<path d="M194.375 132.126C199.31 130.953 202.359 126.002 201.186 121.068C200.012 116.133 195.061 113.084 190.127 114.257C185.193 115.43 182.143 120.381 183.316 125.316C184.49 130.25 189.441 133.299 194.375 132.126Z" fill="#00A5B6"/>
<path d="M101.564 131.536C106.51 130.414 109.61 125.495 108.489 120.549C107.367 115.602 102.448 112.502 97.5015 113.624C92.5555 114.746 89.4554 119.665 90.5773 124.611C91.6992 129.557 96.6182 132.657 101.564 131.536Z" fill="#00A5B6"/>
<path d="M144.754 81.6688C144.754 81.6688 107.413 81.2201 101.502 113.562C95.5905 145.904 127.169 146.508 136.251 147.121C140.37 147.398 149.181 147.427 156.956 147.292C174.169 146.993 186.332 143.662 190.471 127.692C190.954 125.83 191.28 123.918 191.401 121.973C192.496 104.469 180.648 80.8075 144.754 81.6688Z" fill="#00A5B6"/>
<path d="M171.842 130.928L117.594 131.775C111.907 131.864 107.226 127.326 107.137 121.64C107.048 115.954 111.586 111.272 117.272 111.184L171.521 110.337C177.207 110.248 181.888 114.786 181.977 120.472C182.066 126.157 177.529 130.839 171.842 130.928Z" fill="#263238"/>
<path d="M128.851 120.517C128.5 122.308 126.764 123.475 124.973 123.124C123.182 122.773 122.015 121.037 122.366 119.246C122.716 117.455 124.453 116.288 126.244 116.639C128.034 116.99 129.202 118.726 128.851 120.517Z" fill="white"/>
<path d="M166.75 119.913C166.399 121.703 164.663 122.871 162.872 122.52C161.081 122.169 159.914 120.433 160.265 118.642C160.616 116.851 162.352 115.684 164.143 116.035C165.933 116.385 167.101 118.121 166.75 119.913Z" fill="white"/>
<path d="M161.297 196.709C160.702 204.843 153.626 210.954 145.492 210.36C137.358 209.765 131.246 202.69 131.841 194.556C132.436 186.422 139.511 180.31 147.645 180.904C155.779 181.499 161.891 188.575 161.297 196.709Z" fill="#263238"/>
<path d="M157.301 196.417C156.868 202.344 151.712 206.798 145.785 206.364C139.857 205.93 135.403 200.775 135.837 194.847C136.271 188.92 141.427 184.467 147.354 184.9C153.28 185.334 157.734 190.489 157.301 196.417Z" fill="white"/>
<path d="M152.112 198.373C152.07 198.348 152.039 197.71 152.012 196.598C151.985 195.484 151.963 193.899 151.961 191.961L152.08 192.174C150.469 191.234 148.592 190.139 146.544 188.945L146.853 188.949C145.115 189.925 143.232 190.984 141.266 192.089C141.115 192.341 141.47 191.747 141.433 191.808V191.81V191.813V191.819V191.833L141.433 191.859L141.432 191.912L141.43 192.017L141.427 192.228L141.421 192.647L141.407 193.477C141.398 194.028 141.389 194.572 141.38 195.108C141.36 196.177 141.34 197.215 141.321 198.216L141.17 197.946C143.194 199.182 145.038 200.309 146.64 201.287L146.396 201.284C148.103 200.365 149.509 199.633 150.502 199.128C151.495 198.623 152.07 198.348 152.112 198.373C152.153 198.397 151.657 198.721 150.714 199.297C149.771 199.872 148.379 200.701 146.634 201.709L146.515 201.777L146.39 201.705C144.769 200.759 142.902 199.67 140.853 198.476L140.701 198.387L140.703 198.205C140.713 197.204 140.723 196.166 140.734 195.097C140.741 194.561 140.747 194.017 140.754 193.467L140.766 192.636L140.772 192.217L140.775 192.007L140.777 191.901L140.777 191.849L140.778 191.822V191.809V191.802V191.799V191.797C140.741 191.858 141.097 191.262 140.947 191.514C142.919 190.421 144.809 189.374 146.552 188.408L146.71 188.32L146.861 188.412C148.884 189.648 150.738 190.781 152.33 191.754L152.453 191.829L152.449 191.967C152.39 193.981 152.321 195.599 152.262 196.702C152.202 197.807 152.153 198.398 152.112 198.373Z" fill="#00A5B6"/>
<path d="M150.218 72.6194C152.23 70.6077 152.23 67.3462 150.218 65.3345C148.207 63.3228 144.945 63.3228 142.933 65.3345C140.922 67.3462 140.922 70.6077 142.933 72.6194C144.945 74.6311 148.207 74.6311 150.218 72.6194Z" fill="#00A5B6"/>
<path d="M138.35 118.993C138.596 119.019 138.474 120.175 139.195 121.712C139.543 122.475 140.124 123.309 140.949 124.017C141.768 124.727 142.858 125.271 144.053 125.395C145.252 125.49 146.423 125.152 147.357 124.603C148.297 124.056 149.019 123.341 149.5 122.653C150.487 121.273 150.576 120.115 150.822 120.133C150.919 120.134 151.019 120.427 151.019 120.973C151.023 121.519 150.864 122.317 150.418 123.205C149.977 124.092 149.207 125.042 148.098 125.786C147.002 126.529 145.513 127.035 143.915 126.904C142.321 126.743 140.949 125.976 140.005 125.047C139.05 124.114 138.465 123.041 138.191 122.089C137.914 121.135 137.902 120.321 138.005 119.785C138.104 119.246 138.255 118.977 138.35 118.993Z" fill="white"/>
<path d="M188.068 134.074C188.013 134.043 188.683 133.027 189.327 131.193C189.988 129.369 190.565 126.728 190.841 123.775C191.136 120.821 191.092 118.124 191.016 116.18C190.971 115.207 190.925 114.42 190.881 113.877C190.842 113.333 190.831 113.03 190.852 113.028C190.873 113.026 190.924 113.323 190.999 113.865C191.079 114.406 191.157 115.193 191.23 116.168C191.361 118.117 191.44 120.829 191.143 123.805C190.865 126.779 190.249 129.442 189.528 131.267C189.178 132.184 188.817 132.895 188.54 133.367C188.253 133.834 188.086 134.085 188.068 134.074Z" fill="#263238"/>
<path d="M101.587 112.506C101.607 112.512 101.54 112.808 101.402 113.336C101.33 113.599 101.246 113.922 101.17 114.302C101.091 114.681 100.98 115.108 100.908 115.59C100.726 116.546 100.585 117.699 100.499 118.981C100.433 120.265 100.434 121.681 100.559 123.16C100.696 124.638 100.944 126.032 101.236 127.284C101.546 128.532 101.888 129.641 102.236 130.551C102.392 131.013 102.576 131.414 102.721 131.773C102.863 132.133 103.002 132.436 103.119 132.682C103.347 133.178 103.466 133.458 103.447 133.467C103.428 133.477 103.275 133.217 103.013 132.735C102.88 132.495 102.724 132.198 102.566 131.842C102.405 131.487 102.206 131.089 102.036 130.628C101.66 129.721 101.293 128.609 100.965 127.351C100.655 126.09 100.396 124.681 100.256 123.187C100.131 121.692 100.138 120.26 100.22 118.964C100.322 117.669 100.488 116.509 100.698 115.55C100.784 115.067 100.91 114.64 101.006 114.263C101.098 113.884 101.199 113.564 101.289 113.305C101.462 112.783 101.567 112.499 101.587 112.506Z" fill="#263238"/>
<path d="M104.225 166.331C104.227 166.327 104.303 166.349 104.45 166.397C104.61 166.451 104.825 166.524 105.098 166.618C105.681 166.823 106.515 167.117 107.58 167.493C108.12 167.686 108.718 167.899 109.371 168.132C110.029 168.352 110.756 168.56 111.531 168.801C113.086 169.263 114.836 169.86 116.825 170.328C117.815 170.582 118.851 170.848 119.93 171.125C121.011 171.396 122.154 171.599 123.326 171.854C125.668 172.392 128.208 172.757 130.872 173.188C136.22 173.915 142.143 174.413 148.375 174.44C154.608 174.415 160.532 173.917 165.882 173.191C168.547 172.76 171.087 172.395 173.428 171.858C174.601 171.604 175.744 171.401 176.825 171.129C177.904 170.853 178.941 170.587 179.929 170.333C181.919 169.865 183.669 169.268 185.224 168.806C185.998 168.565 186.725 168.358 187.384 168.137C188.037 167.904 188.636 167.691 189.174 167.498C190.24 167.123 191.073 166.829 191.656 166.623C191.93 166.53 192.144 166.457 192.304 166.403C192.451 166.354 192.527 166.332 192.529 166.338C192.531 166.342 192.459 166.374 192.315 166.432C192.158 166.493 191.947 166.576 191.678 166.68C191.099 166.899 190.272 167.211 189.213 167.609C188.676 167.809 188.08 168.031 187.43 168.274C186.773 168.503 186.047 168.718 185.274 168.967C183.722 169.445 181.973 170.058 179.984 170.54C178.995 170.8 177.958 171.072 176.879 171.356C175.797 171.634 174.653 171.843 173.479 172.103C171.135 172.653 168.59 173.028 165.921 173.468C160.562 174.21 154.623 174.717 148.374 174.743C142.127 174.716 136.19 174.208 130.832 173.464C128.163 173.024 125.618 172.649 123.274 172.099C122.1 171.839 120.956 171.63 119.875 171.352C118.795 171.068 117.758 170.795 116.769 170.534C114.78 170.053 113.031 169.439 111.479 168.961C110.706 168.712 109.981 168.496 109.323 168.268C108.673 168.025 108.077 167.803 107.54 167.603C106.482 167.204 105.655 166.892 105.075 166.673C104.806 166.569 104.595 166.486 104.438 166.425C104.296 166.368 104.223 166.336 104.225 166.331Z" fill="#263238"/>
<g opacity="0.3">
<path d="M104.403 166.399C104.403 166.399 109.461 155.908 148.523 155.463C187.585 155.018 192.643 166.399 192.643 166.399C192.643 166.399 153.241 185.832 104.403 166.399Z" fill="black"/>
</g>
<path d="M140.027 84.0882C140.027 84.0934 139.982 84.101 139.893 84.1109C139.786 84.1208 139.656 84.1324 139.498 84.1464C139.152 84.1825 138.638 84.193 137.982 84.2721C136.668 84.3914 134.769 84.6504 132.471 85.1853C130.174 85.7166 127.486 86.5774 124.657 87.8886C121.828 89.1947 118.878 90.9855 116.095 93.264C113.329 95.5647 111.011 98.1225 109.191 100.652C107.367 103.181 106.012 105.657 105.055 107.812C104.093 109.967 103.479 111.781 103.112 113.05C102.91 113.679 102.802 114.181 102.702 114.515C102.657 114.667 102.621 114.792 102.592 114.895C102.565 114.981 102.549 115.024 102.544 115.023C102.539 115.021 102.545 114.976 102.561 114.888C102.583 114.783 102.61 114.655 102.642 114.5C102.724 114.162 102.814 113.654 102.999 113.018C103.332 111.736 103.917 109.903 104.859 107.726C105.797 105.548 107.141 103.045 108.965 100.49C110.784 97.9334 113.115 95.3493 115.903 93.0306C118.708 90.7341 121.686 88.9368 124.541 87.6355C127.396 86.3295 130.108 85.4844 132.424 84.9769C134.741 84.4659 136.651 84.2383 137.973 84.1545C138.632 84.0934 139.149 84.1016 139.497 84.0853C139.656 84.083 139.786 84.0812 139.893 84.0795C139.982 84.08 140.027 84.083 140.027 84.0882Z" fill="white"/>
<path d="M103.491 128.891C103.456 128.905 103.231 128.47 102.96 127.728C102.689 126.987 102.388 125.933 102.2 124.74C102.015 123.547 101.978 122.451 102.01 121.663C102.04 120.874 102.122 120.391 102.16 120.394C102.255 120.398 102.123 122.342 102.5 124.693C102.86 127.047 103.58 128.857 103.491 128.891Z" fill="white"/>
<path d="M93.6968 125.883C93.6822 125.896 93.5647 125.789 93.3819 125.57C93.1986 125.351 92.96 125.009 92.7237 124.553C92.2488 123.651 91.8367 122.218 92.0445 120.641C92.2552 119.064 93.0269 117.788 93.72 117.041C94.0669 116.662 94.3864 116.394 94.6204 116.231C94.8544 116.067 94.9958 115.995 95.0063 116.01C95.04 116.053 94.5156 116.408 93.8824 117.181C93.251 117.941 92.5456 119.177 92.3448 120.681C92.1469 122.184 92.5048 123.562 92.9163 124.46C93.3266 125.37 93.7404 125.85 93.6968 125.883Z" fill="white"/>
<path d="M146.918 65.3868C146.906 65.4438 146.387 65.2529 145.549 65.353C144.732 65.4386 143.557 65.91 142.859 66.9803C142.176 68.0599 142.237 69.3246 142.499 70.1033C142.757 70.9076 143.146 71.2993 143.1 71.3348C143.087 71.347 142.979 71.2632 142.819 71.077C142.658 70.8913 142.46 70.5881 142.297 70.1749C141.968 69.3712 141.854 68.0052 142.605 66.8168C143.373 65.6405 144.661 65.1749 145.53 65.14C145.973 65.1162 146.331 65.1697 146.567 65.239C146.803 65.3065 146.924 65.3699 146.918 65.3868Z" fill="white"/>
<path d="M197.638 118.824C197.575 118.893 196.669 118.029 195.302 117.374C193.94 116.705 192.701 116.528 192.716 116.436C192.714 116.362 194.016 116.407 195.434 117.102C196.857 117.784 197.699 118.779 197.638 118.824Z" fill="white"/>
<path d="M117.835 220.714C117.831 220.717 117.806 220.679 117.761 220.602C117.71 220.509 117.647 220.396 117.571 220.259C117.398 219.93 117.162 219.485 116.864 218.924C116.713 218.63 116.546 218.307 116.363 217.955C116.195 217.591 116.012 217.198 115.816 216.777C115.42 215.933 114.974 214.97 114.541 213.879C114.318 213.335 114.085 212.767 113.842 212.175C113.62 211.574 113.389 210.95 113.149 210.303C112.649 209.016 112.225 207.604 111.726 206.135C110.814 203.17 109.919 199.877 109.133 196.385C108.364 192.887 107.775 189.526 107.311 186.46C106.883 183.388 106.544 180.615 106.358 178.277C106.244 177.11 106.176 176.051 106.118 175.122C106.053 174.193 106.009 173.392 105.99 172.736C105.969 172.102 105.953 171.598 105.94 171.228C105.938 171.07 105.936 170.942 105.935 170.835C105.936 170.746 105.939 170.701 105.944 170.701C105.949 170.701 105.957 170.746 105.966 170.834C105.976 170.94 105.987 171.068 106.002 171.225C106.028 171.595 106.064 172.096 106.108 172.73C106.146 173.384 106.206 174.182 106.288 175.109C106.362 176.037 106.445 177.093 106.572 178.257C106.785 180.589 107.146 183.355 107.589 186.418C108.066 189.477 108.663 192.829 109.429 196.318C110.213 199.803 111.098 203.089 111.993 206.051C112.484 207.518 112.897 208.93 113.386 210.217C113.619 210.864 113.844 211.489 114.06 212.09C114.296 212.683 114.523 213.253 114.74 213.797C115.159 214.89 115.59 215.856 115.97 216.705C116.157 217.129 116.332 217.525 116.494 217.891C116.667 218.247 116.826 218.574 116.97 218.871C117.246 219.442 117.464 219.896 117.626 220.23C117.691 220.373 117.745 220.49 117.789 220.587C117.824 220.669 117.84 220.712 117.835 220.714Z" fill="white"/>
<path d="M95.0367 173.267C95.0308 173.35 93.1265 173.283 90.784 173.116C88.4409 172.949 86.5464 172.746 86.5523 172.663C86.5581 172.58 88.4618 172.647 90.8055 172.814C93.1481 172.981 95.0431 173.184 95.0367 173.267Z" fill="white"/>
<path d="M73.1416 160.841C73.0683 160.881 72.0766 159.192 70.9265 157.07C69.7765 154.948 68.9041 153.195 68.978 153.155C69.0513 153.116 70.0431 154.804 71.1931 156.926C72.3425 159.048 73.215 160.801 73.1416 160.841Z" fill="white"/>
<path d="M138.472 239.065C138.468 239.085 138.226 239.055 137.79 238.982C137.353 238.915 136.728 238.768 135.97 238.542C135.209 238.321 134.326 237.985 133.374 237.545C132.43 237.091 131.422 236.524 130.428 235.833C129.44 235.132 128.567 234.375 127.819 233.639C127.083 232.893 126.468 232.175 126.002 231.534C125.533 230.897 125.184 230.359 124.973 229.971C124.756 229.585 124.646 229.368 124.664 229.357C124.713 229.327 125.2 230.175 126.172 231.404C126.654 232.022 127.278 232.715 128.015 233.441C128.763 234.155 129.629 234.894 130.602 235.586C131.581 236.267 132.57 236.832 133.494 237.294C134.426 237.741 135.291 238.094 136.035 238.339C137.521 238.837 138.483 239.008 138.472 239.065Z" fill="white"/>
<path d="M147.4 212.14C147.401 212.15 147.26 212.164 146.992 212.182C146.724 212.187 146.327 212.246 145.817 212.215C144.795 212.213 143.306 212.049 141.549 211.523C140.669 211.265 139.738 210.88 138.769 210.405C137.82 209.894 136.822 209.306 135.879 208.538C133.974 207.04 132.206 204.936 131.065 202.363C129.963 199.772 129.633 197.043 129.839 194.628C129.922 193.415 130.175 192.284 130.449 191.241C130.762 190.21 131.117 189.266 131.53 188.447C132.345 186.804 133.242 185.605 133.937 184.857C134.264 184.463 134.578 184.213 134.765 184.021C134.96 183.837 135.066 183.744 135.074 183.752C135.097 183.775 134.687 184.164 134.027 184.934C133.363 185.7 132.504 186.907 131.723 188.54C131.328 189.355 130.991 190.29 130.691 191.31C130.432 192.34 130.192 193.455 130.118 194.65C129.931 197.029 130.265 199.704 131.343 202.244C132.462 204.764 134.189 206.834 136.054 208.321C136.977 209.083 137.956 209.669 138.885 210.183C139.835 210.66 140.748 211.052 141.613 211.32C143.34 211.865 144.808 212.06 145.821 212.099C146.834 212.141 147.399 212.107 147.4 212.14Z" fill="white"/>
<path d="M76.9375 166.308C76.9131 166.357 76.4876 166.14 75.7531 165.973C75.0221 165.802 73.9664 165.738 72.8501 166.002C71.735 166.272 70.8236 166.81 70.2492 167.293C69.6706 167.775 69.3895 168.162 69.3459 168.129C69.3209 168.115 69.542 167.677 70.1071 167.133C70.6653 166.588 71.6093 165.99 72.7791 165.707C73.9495 165.429 75.0623 165.534 75.8067 165.765C76.5569 165.994 76.9532 166.284 76.9375 166.308Z" fill="white"/>
<path d="M162.878 108.441C162.878 108.525 155.732 108.592 146.92 108.592C138.104 108.592 130.959 108.524 130.959 108.441C130.959 108.357 138.104 108.289 146.92 108.289C155.732 108.289 162.878 108.357 162.878 108.441Z" fill="white"/>
<path d="M135.645 144.832C135.646 144.842 135.553 144.857 135.375 144.875C135.161 144.894 134.905 144.916 134.596 144.942C134.258 144.971 133.844 144.998 133.361 145.006C132.879 145.016 132.33 145.043 131.723 145.025C130.508 145.022 129.063 144.939 127.465 144.769C125.87 144.583 124.123 144.3 122.317 143.881C120.512 143.45 118.823 142.923 117.312 142.378C115.806 141.816 114.475 141.246 113.387 140.706C112.835 140.453 112.356 140.183 111.93 139.958C111.501 139.737 111.143 139.528 110.853 139.351C110.589 139.19 110.369 139.055 110.186 138.943C110.035 138.847 109.959 138.793 109.964 138.784C109.97 138.775 110.056 138.812 110.217 138.891C110.407 138.989 110.636 139.106 110.91 139.248C111.208 139.408 111.574 139.602 112.008 139.808C112.44 140.017 112.924 140.273 113.478 140.513C114.573 141.025 115.905 141.572 117.406 142.115C118.913 142.643 120.593 143.158 122.386 143.586C124.181 144.002 125.913 144.291 127.497 144.492C129.083 144.675 130.519 144.78 131.727 144.811C132.331 144.843 132.878 144.83 133.358 144.836C133.839 144.845 134.252 144.835 134.59 144.825C134.899 144.82 135.156 144.817 135.37 144.815C135.55 144.815 135.645 144.821 135.645 144.832Z" fill="white"/>
<path d="M182.101 171.061C182.103 171.066 182.056 171.087 181.962 171.125C181.852 171.166 181.714 171.218 181.544 171.282C181.152 171.421 180.61 171.614 179.925 171.858C179.222 172.111 178.359 172.407 177.341 172.705C176.325 173.01 175.177 173.389 173.882 173.712C173.236 173.883 172.56 174.061 171.856 174.248C171.151 174.431 170.407 174.582 169.643 174.76C168.116 175.13 166.463 175.42 164.728 175.748C161.247 176.335 157.391 176.827 153.324 177.09C149.253 177.327 145.366 177.311 141.838 177.154C140.076 177.042 138.4 176.955 136.839 176.775C136.059 176.693 135.302 176.633 134.58 176.538C133.858 176.439 133.166 176.345 132.503 176.254C131.178 176.093 129.993 175.856 128.947 175.679C127.901 175.507 127.008 175.319 126.279 175.154C125.569 174.995 125.009 174.871 124.602 174.78C124.426 174.738 124.283 174.703 124.168 174.675C124.07 174.65 124.021 174.635 124.022 174.629C124.024 174.624 124.075 174.629 124.175 174.645C124.292 174.665 124.436 174.69 124.616 174.72C125.025 174.797 125.589 174.903 126.303 175.038C127.034 175.185 127.929 175.356 128.976 175.512C130.023 175.673 131.208 175.894 132.532 176.042C133.194 176.126 133.886 176.214 134.607 176.306C135.328 176.395 136.083 176.448 136.863 176.525C138.421 176.694 140.093 176.771 141.851 176.875C145.37 177.017 149.246 177.024 153.305 176.788C157.361 176.526 161.206 176.044 164.68 175.473C166.412 175.154 168.062 174.874 169.588 174.515C170.352 174.343 171.095 174.198 171.8 174.021C172.504 173.842 173.181 173.67 173.827 173.506C175.123 173.196 176.273 172.832 177.291 172.544C178.312 172.261 179.18 171.982 179.888 171.747C180.58 171.526 181.127 171.352 181.524 171.225C181.698 171.173 181.838 171.131 181.952 171.097C182.05 171.068 182.1 171.056 182.101 171.061Z" fill="white"/>
</svg>
