<svg width="33" height="27" viewBox="0 0 33 27" fill="none" xmlns="http://www.w3.org/2000/svg">
<g id="facebook 1" clip-path="url(#clip0_0_2495)">
<g id="Group">
<path id="Vector" d="M16.1992 26.9121C25.134 26.9121 32.377 20.9073 32.377 13.4999C32.377 6.0926 25.134 0.0877686 16.1992 0.0877686C7.26451 0.0877686 0.0214844 6.0926 0.0214844 13.4999C0.0214844 20.9073 7.26451 26.9121 16.1992 26.9121Z" fill="#3B5998"/>
<path id="Vector_2" d="M20.2662 14.025H17.3795V22.7927H13.0059V14.025H10.9258V10.9437H13.0059V8.94973C13.0059 7.52383 13.8229 5.29102 17.4185 5.29102L20.6582 5.30225V8.2932H18.3075C17.922 8.2932 17.3798 8.45291 17.3798 9.13311V10.9466H20.6484L20.2662 14.025Z" fill="white"/>
</g>
</g>
<defs>
<clipPath id="clip0_0_2495">
<rect width="32.3555" height="26.8244" fill="white" transform="translate(0.0214844 0.0877686)"/>
</clipPath>
</defs>
</svg>
