<svg width="30" height="27" viewBox="0 0 30 27" fill="none" xmlns="http://www.w3.org/2000/svg">
<g id="search 1" clip-path="url(#clip0_0_2488)">
<path id="Vector" d="M6.81737 16.1231L5.7935 19.391L2.05131 19.4587C0.93294 17.6852 0.298584 15.6561 0.298584 13.4999C0.298584 11.4149 0.891691 9.44861 1.94301 7.71729H1.94382L5.27542 8.23949L6.73487 11.0708C6.42941 11.8321 6.26292 12.6495 6.26292 13.4999C6.26304 14.4229 6.45859 15.3073 6.81737 16.1231Z" fill="#FBBB00"/>
<path id="Vector_2" d="M29.4558 11.151C29.6247 11.9116 29.7128 12.6972 29.7128 13.5C29.7128 14.4002 29.6021 15.2783 29.3912 16.1253C28.6753 19.0076 26.8046 21.5245 24.2131 23.3056L24.2123 23.3049L20.0159 23.1218L19.422 19.9521C21.1416 19.0899 22.4855 17.7406 23.1933 16.1253H15.3291V11.151H23.3081H29.4558Z" fill="#518EF8"/>
<path id="Vector_3" d="M24.212 23.3048L24.2128 23.3055C21.6925 25.0375 18.4908 26.0738 15.0056 26.0738C9.40479 26.0738 4.53532 23.3974 2.05127 19.4587L6.81733 16.1232C8.05933 18.9571 11.2569 20.9745 15.0056 20.9745C16.6169 20.9745 18.1264 20.6021 19.4217 19.952L24.212 23.3048Z" fill="#28B446"/>
<path id="Vector_4" d="M24.3932 3.82078L19.6287 7.15561C18.2882 6.4392 16.7035 6.02534 15.0057 6.02534C11.1722 6.02534 7.91481 8.13525 6.73503 11.0708L1.94392 7.71731H1.94312C4.3908 3.68261 9.32168 0.926025 15.0057 0.926025C18.5742 0.926025 21.8461 2.01278 24.3932 3.82078Z" fill="#F14336"/>
</g>
<defs>
<clipPath id="clip0_0_2488">
<rect width="29.4141" height="25.1478" fill="white" transform="translate(0.298584 0.926025)"/>
</clipPath>
</defs>
</svg>
