<svg width="54" height="54" viewBox="0 0 54 54" fill="none" xmlns="http://www.w3.org/2000/svg">
<g id="carbon:crop-health">
<path id="Vector" d="M3.37183 47.2059H16.8592V50.5778H3.37183V47.2059ZM28.6607 48.8918C28.4082 48.8917 28.1589 48.8348 27.9313 48.7254C27.7037 48.6159 27.5035 48.4568 27.3457 48.2596L21.1078 40.4622H3.37183V37.0904H21.917C22.1696 37.0905 22.4189 37.1474 22.6465 37.2568C22.8741 37.3663 23.0742 37.5254 23.232 37.7226L28.5377 44.3516L37.3736 31.0969C37.5232 30.8726 37.7244 30.6874 37.9604 30.557C38.1964 30.4265 38.4602 30.3545 38.7297 30.3471C38.9992 30.3397 39.2666 30.397 39.5094 30.5143C39.7522 30.6315 39.9633 30.8053 40.125 31.021L44.677 37.0904H50.5778V40.4622H43.8341C43.5723 40.4622 43.3142 40.4013 43.0801 40.2842C42.846 40.1672 42.6424 39.9972 42.4853 39.7878L38.8572 34.9492L30.0634 48.1416C29.9163 48.3623 29.7191 48.5451 29.488 48.6752C29.2568 48.8053 28.9982 48.8789 28.7332 48.8902L28.6607 48.8918ZM18.5452 26.9748V18.5452H20.2311C22.019 18.5429 23.7329 17.8317 24.9972 16.5675C26.2614 15.3033 26.9726 13.5893 26.9748 11.8015V6.74368H21.917C20.1906 6.74651 18.5318 7.41499 17.2858 8.61C16.4127 7.02484 15.1307 5.70276 13.573 4.78148C12.0154 3.86019 10.2393 3.37341 8.42961 3.37183H3.37183V8.42961C3.37495 11.1115 4.4417 13.6826 6.33805 15.5789C8.23441 17.4753 10.8055 18.542 13.4874 18.5452H15.1733V26.9748H3.37183V30.3467H26.9748V26.9748H18.5452ZM21.917 10.1155H23.6029V11.8015C23.6021 12.6955 23.2465 13.5526 22.6144 14.1847C21.9822 14.8169 21.1251 15.1724 20.2311 15.1733H18.5452V13.4874C18.5461 12.5934 18.9016 11.7363 19.5337 11.1041C20.1659 10.472 21.023 10.1164 21.917 10.1155ZM13.4874 15.1733C11.6995 15.1711 9.98554 14.4599 8.72133 13.1957C7.45712 11.9315 6.74591 10.2175 6.74368 8.42961V6.74368H8.42961C10.2175 6.74591 11.9315 7.45712 13.1957 8.72133C14.4599 9.98554 15.1711 11.6995 15.1733 13.4874V15.1733H13.4874Z" fill="white"/>
</g>
</svg>
