<svg width="54" height="46" viewBox="0 0 54 46" fill="none" xmlns="http://www.w3.org/2000/svg">
<g id="carbon:crop-health">
<path id="Vector" d="M3.375 40.1743H16.875V42.9868H3.375V40.1743ZM28.6875 41.5806C28.4347 41.5804 28.1852 41.533 27.9574 41.4417C27.7295 41.3504 27.5292 41.2177 27.3712 41.0532L21.1275 34.5493H3.375V31.7368H21.9375C22.1903 31.7369 22.4398 31.7844 22.6676 31.8757C22.8955 31.967 23.0958 32.0997 23.2537 32.2642L28.5643 37.7935L37.4085 26.7376C37.5583 26.5505 37.7597 26.3961 37.9958 26.2872C38.232 26.1784 38.4961 26.1184 38.7659 26.1122C39.0356 26.106 39.3032 26.1538 39.5463 26.2516C39.7893 26.3494 40.0006 26.4944 40.1625 26.6743L44.7188 31.7368H50.625V34.5493H43.875C43.613 34.5493 43.3546 34.4985 43.1203 34.4009C42.886 34.3032 42.6822 34.1615 42.525 33.9868L38.8935 29.9509L30.0915 40.9548C29.9442 41.1389 29.7469 41.2914 29.5155 41.3999C29.2842 41.5084 29.0253 41.5698 28.7601 41.5792L28.6875 41.5806ZM18.5625 23.2993V16.2681H20.25C22.0395 16.2662 23.7551 15.673 25.0205 14.6185C26.2859 13.564 26.9978 12.1343 27 10.6431V6.42432H21.9375C20.2095 6.42668 18.5491 6.98427 17.3019 7.98103C16.4281 6.65883 15.1448 5.55608 13.5857 4.78762C12.0267 4.01917 10.2489 3.61314 8.4375 3.61182H3.375V7.83057C3.37813 10.0675 4.44587 12.2121 6.344 13.7939C8.24213 15.3757 10.8156 16.2655 13.5 16.2681H15.1875V23.2993H3.375V26.1118H27V23.2993H18.5625ZM21.9375 9.23682H23.625V10.6431C23.6241 11.3888 23.2682 12.1037 22.6355 12.631C22.0028 13.1583 21.1448 13.4548 20.25 13.4556H18.5625V12.0493C18.5634 11.3036 18.9193 10.5887 19.552 10.0614C20.1847 9.53412 21.0427 9.23756 21.9375 9.23682ZM13.5 13.4556C11.7105 13.4537 9.99488 12.8605 8.7295 11.806C7.46411 10.7515 6.75223 9.32184 6.75 7.83057V6.42432H8.4375C10.227 6.42618 11.9426 7.01941 13.208 8.0739C14.4734 9.12839 15.1853 10.558 15.1875 12.0493V13.4556H13.5Z" fill="#0F2424"/>
</g>
</svg>
