<svg width="48" height="49" viewBox="0 0 48 49" fill="none" xmlns="http://www.w3.org/2000/svg">
<g id="Group">
<path id="Vector" d="M33.6 19.6997C33.6 22.2458 32.5886 24.6876 30.7882 26.4879C28.9879 28.2882 26.5461 29.2996 24 29.2996C21.4539 29.2996 19.0121 28.2882 17.2118 26.4879C15.4114 24.6876 14.4 22.2458 14.4 19.6997C14.4 17.1537 15.4114 14.7119 17.2118 12.9116C19.0121 11.1113 21.4539 10.0999 24 10.0999C26.5461 10.0999 28.9879 11.1113 30.7882 12.9116C32.5886 14.7119 33.6 17.1537 33.6 19.6997Z" fill="white"/>
<path id="Vector_2" fill-rule="evenodd" clip-rule="evenodd" d="M23.0208 48.4803C10.2204 47.9667 0 37.426 0 24.4997C0 11.2447 10.7448 0.5 24 0.5C37.2552 0.5 48 11.2447 48 24.4997C48 37.7548 37.2552 48.4995 24 48.4995C23.8904 48.5002 23.7808 48.5002 23.6712 48.4995C23.454 48.4995 23.2368 48.4923 23.0208 48.4803ZM8.5992 39.6436C8.41976 39.1283 8.35868 38.5792 8.4205 38.037C8.48232 37.4949 8.66545 36.9736 8.95629 36.5119C9.24714 36.0502 9.63824 35.66 10.1005 35.3701C10.5629 35.0803 11.0845 34.8983 11.6268 34.8376C20.982 33.802 27.0756 33.8956 36.3852 34.8592C36.9282 34.9158 37.4512 35.0955 37.9142 35.3847C38.3773 35.6739 38.7682 36.0649 39.0573 36.528C39.3464 36.9912 39.526 37.5142 39.5824 38.0572C39.6388 38.6002 39.5705 39.1489 39.3828 39.6616C43.3727 35.6247 45.6072 30.1756 45.6 24.4997C45.6 12.5707 35.9292 2.89997 24 2.89997C12.0708 2.89997 2.4 12.5707 2.4 24.4997C2.4 30.3989 4.7652 35.746 8.5992 39.6436Z" fill="white"/>
</g>
</svg>
